# xmcd
# Track frame offsets:
# 150
# 14667
# 27873
# 45550
# 58127
# 69217
# 80545
# 91566
# 104788
# 119694
# 138420
# 149010
# 160030
# 175748
# 187790
# 199261
# 212808
# 234554
# 248291
# 258004
# 274365
# 301531
#
# Disc length: 4176 seconds
# Revision: 0
# Processed by: cddbd v1.4PL0 Copyright (c) Steve Scherf et al.
# Submitted via: VisiTrax 2.9.5.180 - For more info visit www.synapsa.com
#
DISCID=2d104e16
DTITLE=Waylon Jennings - Are You Ready For The Country
DYEAR=1900
DGENRE=
TTITLE0=Are You Ready For The Country
TTITLE1=Are You Sure Hank Done It This Way
TTITLE2=Suspicious Minds
TTITLE3=I´m A Ramblin Man
TTITLE4=Anita,You´re Dreaming
TTITLE5=Mammas,Don´t Let Your Babies Grow to Be Cowboys
TTITLE6=This Time
TTITLE7=Love Of The Common People
TTITLE8=Luckenback Texas
TTITLE9=I´ve Always Been Crazy
TTITLE10=Only Daddy That´ll Walk The Line
TTITLE11=Dreaming My Dreams With You
TTITLE12=Bob Willis Is Still Thew King
TTITLE13=You Can Have Her
TTITLE14=You Ask Me To
TTITLE15=Amanda
TTITLE16=I Ain´t Living Long Like This
TTITLE17=Highwayman
TTITLE18=The Wurlitzer Prize
TTITLE19=Rose In Paradise
TTITLE20=The Buddy Holly Medley
TTITLE21=The Elvis Presly Medley
EXTD=>Releaset in Australien
EXTT0=
EXTT1=
EXTT2=
EXTT3=
EXTT4=
EXTT5=
EXTT6=
EXTT7=
EXTT8=
EXTT9=
EXTT10=
EXTT11=
EXTT12=
EXTT13=
EXTT14=
EXTT15=
EXTT16=
EXTT17=
EXTT18=
EXTT19=
EXTT20=
EXTT21=
PLAYORDER=
